<svg width="579.52" height="87.62" data-name="Layer 1" version="1.1" viewBox="0 0 579.52 87.62" xmlns="http://www.w3.org/2000/svg">
 <defs>
  <style>.cls-1{fill:#e72b55;}.cls-2{fill:#2c414f;}</style>
 </defs>
 <g transform="translate(0 .57)">
  <path class="cls-1" d="m318.04 85.2c3.21-3.71 6.11-7.09 9-10.45 7.47-8.58 14.92-17.19 22.46-25.71 1.29-1.46 1.05-2.47-0.08-3.76q-12.57-14.28-25.09-28.6c-2.06-2.36-4.06-4.78-6.48-7.64h10c4.89 0 9.78-0.09 14.67 0.05a4.88 4.88 0 0 1 3.18 1.33c5.62 6.2 11.12 12.52 16.65 18.81 4.34 4.94 8.65 9.91 13 14.83 3.17 3.56 2.25 3.74 0.23 6-7.71 8.71-15.34 17.49-23 26.24-2.3 2.63-4.55 5.31-6.95 7.85a4.3 4.3 0 0 1-2.68 1.35c-7.82 0.12-15.65 0.09-23.47 0.1a8.49 8.49 0 0 1-1.44-0.4z"/>
  <path class="cls-2" d="m383.32 41.54c-4.54-5.23-9.07-10.46-13.68-15.79 4.74-5.41 9.37-10.74 14.07-16a2.93 2.93 0 0 1 1.94-0.85c8.36-0.06 16.72 0 25.08 0l0.36 0.7-24.62 28.33"/>
  <path class="cls-2" d="m386.47 56.67 25.42 28.95c-1.38 0.13-2.17 0.27-2.95 0.27-7.58 0-15.15-0.05-22.72-0.23a5 5 0 0 1-3.13-1.46c-4.08-4.43-8-9-12-13.5-1.34-1.5-1-2.7 0.23-4.05q6-6.71 11.87-13.46"/>
 </g>
 <path class="cls-2" d="m522.89 0.46c31.34 0 56.63 19.4 56.63 43.11s-25.29 42.89-56.63 42.89-56.79-19.25-56.79-42.95 25.45-43.05 56.79-43.05zm0 74.13c23.54 0 42.63-13.84 42.63-31 0-17.34-19.09-31.18-42.63-31.18-23.7 0-42.79 13.84-42.79 31.18 0 17.13 19.09 30.97 42.79 30.97z"/>
 <path class="cls-2" d="m48.89 6.61h-48.89v79.85h13.21v-68.09h34.36c13.36 0 18.45 3.66 18.45 10.5s-5.13 10.66-18.45 10.66h-27.1l-7.26 11.77h35.68c14.63 0 31-5.41 31-22.43s-16.42-22.26-31-22.26z"/>
 <path class="cls-2" d="m162.58 50.2c10.5-2.55 19.41-8.75 19.41-21.32 0-17-16.39-22.27-30.86-22.27h-49v79.85h13.2v-35.15h33.09l22.47 35.15h15.43zm-40-10.66-7.27 11.77v-32.93h34.38c13.37 0 18.46 3.66 18.46 10.5s-5.09 10.66-18.46 10.66z"/>
 <polygon class="cls-2" transform="translate(-20.11,-313.38)" points="257.77 363.89 262.09 375.51 296.27 375.51 312.02 399.84 327.77 399.84 273.36 315.38 219.12 399.84 234.71 399.84 250.3 375.51 257.77 363.89 273.36 339.71 288.79 363.89"/>
 <polygon class="cls-2" transform="translate(-14.11,-313.38)" points="447.71 334.2 447.71 399.84 460.76 399.84 460.76 319.99"/>
</svg>
